<svg width="28" height="24" viewBox="0 0 28 24" fill="none" xmlns="http://www.w3.org/2000/svg">
<g clip-path="url(#clip0_1_760)">
<path d="M11.3123 17.709C9.70429 17.709 8.41156 18.8846 8.41156 20.312C8.41156 21.7674 9.70429 22.9429 11.3123 22.9429C12.9204 22.9429 14.2131 21.7674 14.2131 20.312C14.2131 18.8566 12.9204 17.709 11.3123 17.709ZM11.3123 21.2636C10.7448 21.2636 10.3034 20.8437 10.3034 20.312C10.3034 19.8082 10.7448 19.3883 11.3123 19.3883C11.8799 19.3883 12.3213 19.8082 12.3213 20.312C12.3213 20.8158 11.8799 21.2636 11.3123 21.2636Z" fill="#9758A6"/>
<path d="M22.8834 17.709C21.2753 17.709 19.9826 18.8846 19.9826 20.312C19.9826 21.7674 21.2753 22.9429 22.8834 22.9429C24.4914 22.9429 25.7841 21.7674 25.7841 20.312C25.7526 18.8566 24.4599 17.709 22.8834 17.709ZM22.8834 21.2636C22.3158 21.2636 21.8744 20.8437 21.8744 20.312C21.8744 19.8082 22.3158 19.3883 22.8834 19.3883C23.4509 19.3883 23.8923 19.8082 23.8923 20.312C23.8608 20.8158 23.4194 21.2636 22.8834 21.2636Z" fill="#9758A6"/>
<path d="M26.8563 4.27463C26.6671 4.05073 26.3833 3.93877 26.0996 3.93877H7.40225L6.99236 2.76326C6.614 1.69971 5.54198 1 4.28078 1H1.34849C0.812478 1 0.402588 1.36385 0.402588 1.83965C0.402588 2.31545 0.812478 2.6793 1.34849 2.6793H4.28078C4.69067 2.6793 5.06903 2.90321 5.19515 3.26705L8.63192 12.895L8.60039 12.979C8.1905 13.8466 8.28509 14.8262 8.85263 15.6379C9.4517 16.4216 10.4291 16.8974 11.5012 16.8974H24.4285C24.9645 16.8974 25.3744 16.5335 25.3744 16.0577C25.3744 15.5819 24.9645 15.2181 24.4285 15.2181H11.5012C11.0597 15.2181 10.6814 15.0222 10.4607 14.7143C10.24 14.4064 10.1769 14.0146 10.3345 13.6787H21.4016C22.915 13.6787 24.2393 12.8111 24.7122 11.5236L27.0139 5.03032C27.077 4.77842 27.0139 4.49854 26.8563 4.27463ZM21.37 11.9994H10.2715L8.00132 5.61807H24.8068L22.915 11.0198C22.6628 11.6076 22.0637 11.9994 21.37 11.9994Z" fill="#9758A6"/>
</g>
<defs>
<clipPath id="clip0_1_760">
<rect width="26.6355" height="24" fill="white" transform="translate(0.402588)"/>
</clipPath>
</defs>
</svg>
