<svg width="412" height="71" viewBox="0 0 412 71" fill="none" xmlns="http://www.w3.org/2000/svg">
<rect width="412" height="71" fill="#1E1E1E"/>
<g clip-path="url(#clip0_0_1)">
<rect width="1440" height="1890" transform="translate(-514 -676)" fill="#EFEFEF"/>
<mask id="path-1-outside-1_0_1" maskUnits="userSpaceOnUse" x="16" y="9" width="385" height="54" fill="black">
<rect fill="white" x="16" y="9" width="385" height="54"/>
<path d="M47.4375 44.1875H55.25C55 47.1667 54.1667 49.8229 52.75 52.1562C51.3333 54.4688 49.3438 56.2917 46.7812 57.625C44.2188 58.9583 41.1042 59.625 37.4375 59.625C34.625 59.625 32.0938 59.125 29.8438 58.125C27.5938 57.1042 25.6667 55.6667 24.0625 53.8125C22.4583 51.9375 21.2292 49.6771 20.375 47.0312C19.5417 44.3854 19.125 41.4271 19.125 38.1562V34.375C19.125 31.1042 19.5521 28.1458 20.4062 25.5C21.2812 22.8542 22.5312 20.5938 24.1562 18.7188C25.7812 16.8229 27.7292 15.375 30 14.375C32.2917 13.375 34.8646 12.875 37.7188 12.875C41.3438 12.875 44.4062 13.5417 46.9062 14.875C49.4062 16.2083 51.3438 18.0521 52.7188 20.4062C54.1146 22.7604 54.9688 25.4583 55.2812 28.5H47.4688C47.2604 26.5417 46.8021 24.8646 46.0938 23.4688C45.4062 22.0729 44.3854 21.0104 43.0312 20.2812C41.6771 19.5312 39.9062 19.1562 37.7188 19.1562C35.9271 19.1562 34.3646 19.4896 33.0312 20.1562C31.6979 20.8229 30.5833 21.8021 29.6875 23.0938C28.7917 24.3854 28.1146 25.9792 27.6562 27.875C27.2188 29.75 27 31.8958 27 34.3125V38.1562C27 40.4479 27.1979 42.5312 27.5938 44.4062C28.0104 46.2604 28.6354 47.8542 29.4688 49.1875C30.3229 50.5208 31.4062 51.5521 32.7188 52.2812C34.0312 53.0104 35.6042 53.375 37.4375 53.375C39.6667 53.375 41.4688 53.0208 42.8438 52.3125C44.2396 51.6042 45.2917 50.5729 46 49.2188C46.7292 47.8438 47.2083 46.1667 47.4375 44.1875ZM80.0938 19.5625L66.5 59H58.2812L75.4062 13.5H80.6562L80.0938 19.5625ZM91.4688 59L77.8438 19.5625L77.25 13.5H82.5312L99.7188 59H91.4688ZM90.8125 42.125V48.3438H66.0625V42.125H90.8125ZM119.594 13.5V59H111.812V13.5H119.594ZM133.875 13.5V19.75H97.6562V13.5H133.875ZM169.656 52.7812V59H145.5V52.7812H169.656ZM147.719 13.5V59H139.875V13.5H147.719ZM166.5 32.5V38.625H145.5V32.5H166.5ZM169.5 13.5V19.75H145.5V13.5H169.5ZM211 35.75V53.125C210.354 53.9792 209.344 54.9167 207.969 55.9375C206.615 56.9375 204.812 57.8021 202.562 58.5312C200.312 59.2604 197.51 59.625 194.156 59.625C191.302 59.625 188.688 59.1458 186.312 58.1875C183.938 57.2083 181.885 55.7812 180.156 53.9062C178.448 52.0312 177.125 49.75 176.188 47.0625C175.25 44.3542 174.781 41.2708 174.781 37.8125V34.6562C174.781 31.2188 175.208 28.1562 176.062 25.4688C176.938 22.7604 178.188 20.4688 179.812 18.5938C181.438 16.7188 183.396 15.3021 185.688 14.3438C188 13.3646 190.615 12.875 193.531 12.875C197.26 12.875 200.344 13.5 202.781 14.75C205.24 15.9792 207.135 17.6875 208.469 19.875C209.802 22.0625 210.646 24.5625 211 27.375H203.312C203.062 25.7917 202.573 24.375 201.844 23.125C201.135 21.875 200.115 20.8958 198.781 20.1875C197.469 19.4583 195.76 19.0938 193.656 19.0938C191.844 19.0938 190.25 19.4375 188.875 20.125C187.5 20.8125 186.354 21.8229 185.438 23.1562C184.542 24.4896 183.865 26.1146 183.406 28.0312C182.948 29.9479 182.719 32.1354 182.719 34.5938V37.8125C182.719 40.3125 182.979 42.5312 183.5 44.4688C184.042 46.4062 184.812 48.0417 185.812 49.375C186.833 50.7083 188.073 51.7188 189.531 52.4062C190.99 53.0729 192.635 53.4062 194.469 53.4062C196.26 53.4062 197.729 53.2604 198.875 52.9688C200.021 52.6562 200.927 52.2917 201.594 51.875C202.281 51.4375 202.812 51.0208 203.188 50.625V41.5938H193.719V35.75H211ZM255.969 35V37.5C255.969 40.9375 255.521 44.0208 254.625 46.75C253.729 49.4792 252.448 51.8021 250.781 53.7188C249.135 55.6354 247.156 57.1042 244.844 58.125C242.531 59.125 239.969 59.625 237.156 59.625C234.365 59.625 231.812 59.125 229.5 58.125C227.208 57.1042 225.219 55.6354 223.531 53.7188C221.844 51.8021 220.531 49.4792 219.594 46.75C218.677 44.0208 218.219 40.9375 218.219 37.5V35C218.219 31.5625 218.677 28.4896 219.594 25.7812C220.51 23.0521 221.802 20.7292 223.469 18.8125C225.156 16.875 227.146 15.4062 229.438 14.4062C231.75 13.3854 234.302 12.875 237.094 12.875C239.906 12.875 242.469 13.3854 244.781 14.4062C247.094 15.4062 249.083 16.875 250.75 18.8125C252.417 20.7292 253.698 23.0521 254.594 25.7812C255.51 28.4896 255.969 31.5625 255.969 35ZM248.125 37.5V34.9375C248.125 32.3958 247.875 30.1562 247.375 28.2188C246.896 26.2604 246.177 24.625 245.219 23.3125C244.281 21.9792 243.125 20.9792 241.75 20.3125C240.375 19.625 238.823 19.2812 237.094 19.2812C235.365 19.2812 233.823 19.625 232.469 20.3125C231.115 20.9792 229.958 21.9792 229 23.3125C228.062 24.625 227.344 26.2604 226.844 28.2188C226.344 30.1562 226.094 32.3958 226.094 34.9375V37.5C226.094 40.0417 226.344 42.2917 226.844 44.25C227.344 46.2083 228.073 47.8646 229.031 49.2188C230.01 50.5521 231.177 51.5625 232.531 52.25C233.885 52.9167 235.427 53.25 237.156 53.25C238.906 53.25 240.458 52.9167 241.812 52.25C243.167 51.5625 244.312 50.5521 245.25 49.2188C246.188 47.8646 246.896 46.2083 247.375 44.25C247.875 42.2917 248.125 40.0417 248.125 37.5ZM263.812 13.5H279.906C283.365 13.5 286.312 14.0208 288.75 15.0625C291.188 16.1042 293.052 17.6458 294.344 19.6875C295.656 21.7083 296.312 24.2083 296.312 27.1875C296.312 29.4583 295.896 31.4583 295.062 33.1875C294.229 34.9167 293.052 36.375 291.531 37.5625C290.01 38.7292 288.198 39.6354 286.094 40.2812L283.719 41.4375H269.25L269.188 35.2188H280.031C281.906 35.2188 283.469 34.8854 284.719 34.2188C285.969 33.5521 286.906 32.6458 287.531 31.5C288.177 30.3333 288.5 29.0208 288.5 27.5625C288.5 25.9792 288.188 24.6042 287.562 23.4375C286.958 22.25 286.021 21.3438 284.75 20.7188C283.479 20.0729 281.865 19.75 279.906 19.75H271.656V59H263.812V13.5ZM289.781 59L279.094 38.5625L287.312 38.5312L298.156 58.5938V59H289.781ZM312.5 13.5V59H304.656V13.5H312.5ZM340.531 19.5625L326.938 59H318.719L335.844 13.5H341.094L340.531 19.5625ZM351.906 59L338.281 19.5625L337.688 13.5H342.969L360.156 59H351.906ZM351.25 42.125V48.3438H326.5V42.125H351.25ZM389.188 47.2812C389.188 46.3438 389.042 45.5104 388.75 44.7812C388.479 44.0521 387.99 43.3854 387.281 42.7812C386.573 42.1771 385.573 41.5938 384.281 41.0312C383.01 40.4479 381.385 39.8542 379.406 39.25C377.24 38.5833 375.24 37.8438 373.406 37.0312C371.594 36.1979 370.01 35.2396 368.656 34.1562C367.302 33.0521 366.25 31.7917 365.5 30.375C364.75 28.9375 364.375 27.2812 364.375 25.4062C364.375 23.5521 364.76 21.8646 365.531 20.3438C366.323 18.8229 367.438 17.5104 368.875 16.4062C370.333 15.2812 372.052 14.4167 374.031 13.8125C376.01 13.1875 378.198 12.875 380.594 12.875C383.969 12.875 386.875 13.5 389.312 14.75C391.771 16 393.656 17.6771 394.969 19.7812C396.302 21.8854 396.969 24.2083 396.969 26.75H389.188C389.188 25.25 388.865 23.9271 388.219 22.7812C387.594 21.6146 386.635 20.6979 385.344 20.0312C384.073 19.3646 382.458 19.0312 380.5 19.0312C378.646 19.0312 377.104 19.3125 375.875 19.875C374.646 20.4375 373.729 21.1979 373.125 22.1562C372.521 23.1146 372.219 24.1979 372.219 25.4062C372.219 26.2604 372.417 27.0417 372.812 27.75C373.208 28.4375 373.812 29.0833 374.625 29.6875C375.438 30.2708 376.458 30.8229 377.688 31.3438C378.917 31.8646 380.365 32.3646 382.031 32.8438C384.552 33.5938 386.75 34.4271 388.625 35.3438C390.5 36.2396 392.062 37.2604 393.312 38.4062C394.562 39.5521 395.5 40.8542 396.125 42.3125C396.75 43.75 397.062 45.3854 397.062 47.2188C397.062 49.1354 396.677 50.8646 395.906 52.4062C395.135 53.9271 394.031 55.2292 392.594 56.3125C391.177 57.375 389.469 58.1979 387.469 58.7812C385.49 59.3438 383.281 59.625 380.844 59.625C378.656 59.625 376.5 59.3333 374.375 58.75C372.271 58.1667 370.354 57.2812 368.625 56.0938C366.896 54.8854 365.521 53.3854 364.5 51.5938C363.479 49.7812 362.969 47.6667 362.969 45.25H370.812C370.812 46.7292 371.062 47.9896 371.562 49.0312C372.083 50.0729 372.802 50.9271 373.719 51.5938C374.635 52.2396 375.698 52.7188 376.906 53.0312C378.135 53.3438 379.448 53.5 380.844 53.5C382.677 53.5 384.208 53.2396 385.438 52.7188C386.688 52.1979 387.625 51.4688 388.25 50.5312C388.875 49.5938 389.188 48.5104 389.188 47.2812Z"/>
</mask>
<g filter="url(#filter0_i_0_1)">
<path d="M47.4375 44.1875H55.25C55 47.1667 54.1667 49.8229 52.75 52.1562C51.3333 54.4688 49.3438 56.2917 46.7812 57.625C44.2188 58.9583 41.1042 59.625 37.4375 59.625C34.625 59.625 32.0938 59.125 29.8438 58.125C27.5938 57.1042 25.6667 55.6667 24.0625 53.8125C22.4583 51.9375 21.2292 49.6771 20.375 47.0312C19.5417 44.3854 19.125 41.4271 19.125 38.1562V34.375C19.125 31.1042 19.5521 28.1458 20.4062 25.5C21.2812 22.8542 22.5312 20.5938 24.1562 18.7188C25.7812 16.8229 27.7292 15.375 30 14.375C32.2917 13.375 34.8646 12.875 37.7188 12.875C41.3438 12.875 44.4062 13.5417 46.9062 14.875C49.4062 16.2083 51.3438 18.0521 52.7188 20.4062C54.1146 22.7604 54.9688 25.4583 55.2812 28.5H47.4688C47.2604 26.5417 46.8021 24.8646 46.0938 23.4688C45.4062 22.0729 44.3854 21.0104 43.0312 20.2812C41.6771 19.5312 39.9062 19.1562 37.7188 19.1562C35.9271 19.1562 34.3646 19.4896 33.0312 20.1562C31.6979 20.8229 30.5833 21.8021 29.6875 23.0938C28.7917 24.3854 28.1146 25.9792 27.6562 27.875C27.2188 29.75 27 31.8958 27 34.3125V38.1562C27 40.4479 27.1979 42.5312 27.5938 44.4062C28.0104 46.2604 28.6354 47.8542 29.4688 49.1875C30.3229 50.5208 31.4062 51.5521 32.7188 52.2812C34.0312 53.0104 35.6042 53.375 37.4375 53.375C39.6667 53.375 41.4688 53.0208 42.8438 52.3125C44.2396 51.6042 45.2917 50.5729 46 49.2188C46.7292 47.8438 47.2083 46.1667 47.4375 44.1875ZM80.0938 19.5625L66.5 59H58.2812L75.4062 13.5H80.6562L80.0938 19.5625ZM91.4688 59L77.8438 19.5625L77.25 13.5H82.5312L99.7188 59H91.4688ZM90.8125 42.125V48.3438H66.0625V42.125H90.8125ZM119.594 13.5V59H111.812V13.5H119.594ZM133.875 13.5V19.75H97.6562V13.5H133.875ZM169.656 52.7812V59H145.5V52.7812H169.656ZM147.719 13.5V59H139.875V13.5H147.719ZM166.5 32.5V38.625H145.5V32.5H166.5ZM169.5 13.5V19.75H145.5V13.5H169.5ZM211 35.75V53.125C210.354 53.9792 209.344 54.9167 207.969 55.9375C206.615 56.9375 204.812 57.8021 202.562 58.5312C200.312 59.2604 197.51 59.625 194.156 59.625C191.302 59.625 188.688 59.1458 186.312 58.1875C183.938 57.2083 181.885 55.7812 180.156 53.9062C178.448 52.0312 177.125 49.75 176.188 47.0625C175.25 44.3542 174.781 41.2708 174.781 37.8125V34.6562C174.781 31.2188 175.208 28.1562 176.062 25.4688C176.938 22.7604 178.188 20.4688 179.812 18.5938C181.438 16.7188 183.396 15.3021 185.688 14.3438C188 13.3646 190.615 12.875 193.531 12.875C197.26 12.875 200.344 13.5 202.781 14.75C205.24 15.9792 207.135 17.6875 208.469 19.875C209.802 22.0625 210.646 24.5625 211 27.375H203.312C203.062 25.7917 202.573 24.375 201.844 23.125C201.135 21.875 200.115 20.8958 198.781 20.1875C197.469 19.4583 195.76 19.0938 193.656 19.0938C191.844 19.0938 190.25 19.4375 188.875 20.125C187.5 20.8125 186.354 21.8229 185.438 23.1562C184.542 24.4896 183.865 26.1146 183.406 28.0312C182.948 29.9479 182.719 32.1354 182.719 34.5938V37.8125C182.719 40.3125 182.979 42.5312 183.5 44.4688C184.042 46.4062 184.812 48.0417 185.812 49.375C186.833 50.7083 188.073 51.7188 189.531 52.4062C190.99 53.0729 192.635 53.4062 194.469 53.4062C196.26 53.4062 197.729 53.2604 198.875 52.9688C200.021 52.6562 200.927 52.2917 201.594 51.875C202.281 51.4375 202.812 51.0208 203.188 50.625V41.5938H193.719V35.75H211ZM255.969 35V37.5C255.969 40.9375 255.521 44.0208 254.625 46.75C253.729 49.4792 252.448 51.8021 250.781 53.7188C249.135 55.6354 247.156 57.1042 244.844 58.125C242.531 59.125 239.969 59.625 237.156 59.625C234.365 59.625 231.812 59.125 229.5 58.125C227.208 57.1042 225.219 55.6354 223.531 53.7188C221.844 51.8021 220.531 49.4792 219.594 46.75C218.677 44.0208 218.219 40.9375 218.219 37.5V35C218.219 31.5625 218.677 28.4896 219.594 25.7812C220.51 23.0521 221.802 20.7292 223.469 18.8125C225.156 16.875 227.146 15.4062 229.438 14.4062C231.75 13.3854 234.302 12.875 237.094 12.875C239.906 12.875 242.469 13.3854 244.781 14.4062C247.094 15.4062 249.083 16.875 250.75 18.8125C252.417 20.7292 253.698 23.0521 254.594 25.7812C255.51 28.4896 255.969 31.5625 255.969 35ZM248.125 37.5V34.9375C248.125 32.3958 247.875 30.1562 247.375 28.2188C246.896 26.2604 246.177 24.625 245.219 23.3125C244.281 21.9792 243.125 20.9792 241.75 20.3125C240.375 19.625 238.823 19.2812 237.094 19.2812C235.365 19.2812 233.823 19.625 232.469 20.3125C231.115 20.9792 229.958 21.9792 229 23.3125C228.062 24.625 227.344 26.2604 226.844 28.2188C226.344 30.1562 226.094 32.3958 226.094 34.9375V37.5C226.094 40.0417 226.344 42.2917 226.844 44.25C227.344 46.2083 228.073 47.8646 229.031 49.2188C230.01 50.5521 231.177 51.5625 232.531 52.25C233.885 52.9167 235.427 53.25 237.156 53.25C238.906 53.25 240.458 52.9167 241.812 52.25C243.167 51.5625 244.312 50.5521 245.25 49.2188C246.188 47.8646 246.896 46.2083 247.375 44.25C247.875 42.2917 248.125 40.0417 248.125 37.5ZM263.812 13.5H279.906C283.365 13.5 286.312 14.0208 288.75 15.0625C291.188 16.1042 293.052 17.6458 294.344 19.6875C295.656 21.7083 296.312 24.2083 296.312 27.1875C296.312 29.4583 295.896 31.4583 295.062 33.1875C294.229 34.9167 293.052 36.375 291.531 37.5625C290.01 38.7292 288.198 39.6354 286.094 40.2812L283.719 41.4375H269.25L269.188 35.2188H280.031C281.906 35.2188 283.469 34.8854 284.719 34.2188C285.969 33.5521 286.906 32.6458 287.531 31.5C288.177 30.3333 288.5 29.0208 288.5 27.5625C288.5 25.9792 288.188 24.6042 287.562 23.4375C286.958 22.25 286.021 21.3438 284.75 20.7188C283.479 20.0729 281.865 19.75 279.906 19.75H271.656V59H263.812V13.5ZM289.781 59L279.094 38.5625L287.312 38.5312L298.156 58.5938V59H289.781ZM312.5 13.5V59H304.656V13.5H312.5ZM340.531 19.5625L326.938 59H318.719L335.844 13.5H341.094L340.531 19.5625ZM351.906 59L338.281 19.5625L337.688 13.5H342.969L360.156 59H351.906ZM351.25 42.125V48.3438H326.5V42.125H351.25ZM389.188 47.2812C389.188 46.3438 389.042 45.5104 388.75 44.7812C388.479 44.0521 387.99 43.3854 387.281 42.7812C386.573 42.1771 385.573 41.5938 384.281 41.0312C383.01 40.4479 381.385 39.8542 379.406 39.25C377.24 38.5833 375.24 37.8438 373.406 37.0312C371.594 36.1979 370.01 35.2396 368.656 34.1562C367.302 33.0521 366.25 31.7917 365.5 30.375C364.75 28.9375 364.375 27.2812 364.375 25.4062C364.375 23.5521 364.76 21.8646 365.531 20.3438C366.323 18.8229 367.438 17.5104 368.875 16.4062C370.333 15.2812 372.052 14.4167 374.031 13.8125C376.01 13.1875 378.198 12.875 380.594 12.875C383.969 12.875 386.875 13.5 389.312 14.75C391.771 16 393.656 17.6771 394.969 19.7812C396.302 21.8854 396.969 24.2083 396.969 26.75H389.188C389.188 25.25 388.865 23.9271 388.219 22.7812C387.594 21.6146 386.635 20.6979 385.344 20.0312C384.073 19.3646 382.458 19.0312 380.5 19.0312C378.646 19.0312 377.104 19.3125 375.875 19.875C374.646 20.4375 373.729 21.1979 373.125 22.1562C372.521 23.1146 372.219 24.1979 372.219 25.4062C372.219 26.2604 372.417 27.0417 372.812 27.75C373.208 28.4375 373.812 29.0833 374.625 29.6875C375.438 30.2708 376.458 30.8229 377.688 31.3438C378.917 31.8646 380.365 32.3646 382.031 32.8438C384.552 33.5938 386.75 34.4271 388.625 35.3438C390.5 36.2396 392.062 37.2604 393.312 38.4062C394.562 39.5521 395.5 40.8542 396.125 42.3125C396.75 43.75 397.062 45.3854 397.062 47.2188C397.062 49.1354 396.677 50.8646 395.906 52.4062C395.135 53.9271 394.031 55.2292 392.594 56.3125C391.177 57.375 389.469 58.1979 387.469 58.7812C385.49 59.3438 383.281 59.625 380.844 59.625C378.656 59.625 376.5 59.3333 374.375 58.75C372.271 58.1667 370.354 57.2812 368.625 56.0938C366.896 54.8854 365.521 53.3854 364.5 51.5938C363.479 49.7812 362.969 47.6667 362.969 45.25H370.812C370.812 46.7292 371.062 47.9896 371.562 49.0312C372.083 50.0729 372.802 50.9271 373.719 51.5938C374.635 52.2396 375.698 52.7188 376.906 53.0312C378.135 53.3438 379.448 53.5 380.844 53.5C382.677 53.5 384.208 53.2396 385.438 52.7188C386.688 52.1979 387.625 51.4688 388.25 50.5312C388.875 49.5938 389.188 48.5104 389.188 47.2812Z" fill="white"/>
</g>
<path d="M47.4375 44.1875V41.1875H44.7648L44.4574 43.8424L47.4375 44.1875ZM55.25 44.1875L58.2395 44.4384L58.5123 41.1875H55.25V44.1875ZM52.75 52.1562L55.3082 53.7234L55.3144 53.7132L52.75 52.1562ZM29.8438 58.125L28.6042 60.857L28.6148 60.8617L28.6253 60.8664L29.8438 58.125ZM24.0625 53.8125L21.7829 55.7628L21.7883 55.7691L21.7938 55.7753L24.0625 53.8125ZM20.375 47.0312L17.5136 47.9325L17.5168 47.9427L17.5201 47.9529L20.375 47.0312ZM20.4062 25.5L17.558 24.558L17.5546 24.5682L17.5513 24.5783L20.4062 25.5ZM24.1562 18.7188L26.4233 20.6835L26.4287 20.6773L26.434 20.6711L24.1562 18.7188ZM30 14.375L28.8002 11.6254L28.7909 11.6294L30 14.375ZM52.7188 20.4062L50.1282 21.9193L50.1332 21.9278L50.1382 21.9363L52.7188 20.4062ZM55.2812 28.5V31.5H58.6053L58.2655 28.1934L55.2812 28.5ZM47.4688 28.5L44.4856 28.8174L44.771 31.5H47.4688V28.5ZM46.0938 23.4688L43.4025 24.7943L43.4104 24.8104L43.4185 24.8263L46.0938 23.4688ZM43.0312 20.2812L41.5778 22.9056L41.5933 22.9142L41.609 22.9227L43.0312 20.2812ZM27.6562 27.875L24.7403 27.17L24.7374 27.1817L24.7347 27.1933L27.6562 27.875ZM27.5938 44.4062L24.6584 45.0259L24.6625 45.045L24.6667 45.064L27.5938 44.4062ZM29.4688 49.1875L26.9248 50.7775L26.9336 50.7917L26.9427 50.8058L29.4688 49.1875ZM42.8438 52.3125L41.4862 49.6373L41.478 49.6414L41.4699 49.6456L42.8438 52.3125ZM46 49.2188L43.3496 47.8132L43.3456 47.8207L43.3417 47.8283L46 49.2188ZM47.4375 47.1875H55.25V41.1875H47.4375V47.1875ZM52.2605 43.9366C52.0456 46.4982 51.3392 48.6993 50.1856 50.5993L55.3144 53.7132C56.9941 50.9465 57.9544 47.8352 58.2395 44.4384L52.2605 43.9366ZM50.1919 50.5891C49.0784 52.4066 47.5085 53.8648 45.3965 54.9637L48.166 60.2863C51.179 58.7186 53.5882 56.5309 55.3081 53.7234L50.1919 50.5891ZM45.3965 54.9637C43.3614 56.0226 40.7487 56.625 37.4375 56.625V62.625C41.4597 62.625 45.0761 61.894 48.166 60.2863L45.3965 54.9637ZM37.4375 56.625C34.9852 56.625 32.8777 56.1905 31.0622 55.3836L28.6253 60.8664C31.3098 62.0595 34.2648 62.625 37.4375 62.625V56.625ZM31.0833 55.393C29.2247 54.5498 27.6496 53.3735 26.3312 51.8497L21.7938 55.7753C23.6837 57.9598 25.9628 59.6585 28.6042 60.857L31.0833 55.393ZM26.3421 51.8622C25.0265 50.3246 23.9776 48.4256 23.2299 46.1096L17.5201 47.9529C18.4807 50.9286 19.8902 53.5504 21.7829 55.7628L26.3421 51.8622ZM23.2364 46.13C22.5097 43.8226 22.125 41.1746 22.125 38.1562H16.125C16.125 41.6796 16.5737 44.9483 17.5136 47.9325L23.2364 46.13ZM22.125 38.1562V34.375H16.125V38.1562H22.125ZM22.125 34.375C22.125 31.3633 22.5184 28.7225 23.2612 26.4217L17.5513 24.5783C16.5858 27.5691 16.125 30.845 16.125 34.375H22.125ZM23.2545 26.442C24.0205 24.1259 25.0878 22.2246 26.4233 20.6835L21.8892 16.754C19.9747 18.9629 18.542 21.5825 17.558 24.558L23.2545 26.442ZM26.434 20.6711C27.7686 19.1141 29.352 17.9383 31.2091 17.1206L28.7909 11.6294C26.1063 12.8117 23.7939 14.5317 21.8785 16.7664L26.434 20.6711ZM31.1998 17.1246C33.0631 16.3115 35.2193 15.875 37.7188 15.875V9.875C34.5099 9.875 31.5202 10.4385 28.8002 11.6254L31.1998 17.1246ZM37.7188 15.875C40.9854 15.875 43.5336 16.4762 45.4945 17.5221L48.318 12.2279C45.2789 10.6071 41.7021 9.875 37.7188 9.875V15.875ZM45.4945 17.5221C47.5243 18.6046 49.0449 20.0644 50.1282 21.9193L55.3093 18.8932C53.6426 16.0398 51.2882 13.812 48.318 12.2279L45.4945 17.5221ZM50.1382 21.9363C51.2878 23.875 52.0236 26.1462 52.297 28.8066L58.2655 28.1934C57.9139 24.7704 56.9414 21.6458 55.2993 18.8762L50.1382 21.9363ZM55.2812 25.5H47.4688V31.5H55.2812V25.5ZM50.4519 28.1826C50.2146 25.9516 49.6788 23.904 48.769 22.1112L43.4185 24.8263C43.9254 25.8252 44.3063 27.1318 44.4856 28.8174L50.4519 28.1826ZM48.785 22.1432C47.8252 20.1944 46.3641 18.6686 44.4535 17.6398L41.609 22.9227C42.4067 23.3522 42.9873 23.9514 43.4025 24.7943L48.785 22.1432ZM44.4847 17.6569C42.5397 16.5796 40.2165 16.1562 37.7188 16.1562V22.1562C39.596 22.1562 40.8145 22.4829 41.5778 22.9056L44.4847 17.6569ZM37.7188 16.1562C35.5544 16.1562 33.5154 16.5601 31.6896 17.473L34.3729 22.8395C35.2138 22.4191 36.2998 22.1562 37.7188 22.1562V16.1562ZM31.6896 17.473C29.8813 18.3771 28.3889 19.702 27.2224 21.3841L32.1526 24.8034C32.7778 23.9021 33.5145 23.2687 34.3729 22.8395L31.6896 17.473ZM27.2224 21.3841C26.0715 23.0434 25.2654 24.9979 24.7403 27.17L30.5722 28.58C30.9638 26.9604 31.5118 25.7274 32.1526 24.8034L27.2224 21.3841ZM24.7347 27.1933C24.2338 29.34 24 31.7218 24 34.3125H30C30 32.0699 30.2037 30.16 30.5778 28.5567L24.7347 27.1933ZM24 34.3125V38.1562H30V34.3125H24ZM24 38.1562C24 40.617 24.2122 42.9122 24.6584 45.0259L30.5291 43.7866C30.1836 42.1503 30 40.2788 30 38.1562H24ZM24.6667 45.064C25.1426 47.1816 25.8791 49.1045 26.9248 50.7775L32.0127 47.5975C31.3917 46.6039 30.8782 45.3393 30.5208 43.7485L24.6667 45.064ZM26.9427 50.8058C28.0495 52.5336 29.4915 53.9202 31.2618 54.9037L34.1757 49.6588C33.321 49.184 32.5963 48.5081 31.9948 47.5692L26.9427 50.8058ZM31.2618 54.9037C33.1085 55.9296 35.2062 56.375 37.4375 56.375V50.375C36.0022 50.375 34.954 50.0912 34.1757 49.6588L31.2618 54.9037ZM37.4375 56.375C39.9482 56.375 42.272 55.9817 44.2176 54.9794L41.4699 49.6456C40.6655 50.06 39.3852 50.375 37.4375 50.375V56.375ZM44.2013 54.9877C46.1394 54.0042 47.6532 52.5307 48.6583 50.6092L43.3417 47.8283C42.9301 48.6151 42.3397 49.2041 41.4862 49.6373L44.2013 54.9877ZM48.6504 50.6243C49.5959 48.8413 50.157 46.7834 50.4176 44.5326L44.4574 43.8424C44.2597 45.55 43.8624 46.8462 43.3496 47.8132L48.6504 50.6243ZM80.0938 19.5625L82.93 20.5401L83.0476 20.199L83.0809 19.8397L80.0938 19.5625ZM66.5 59V62H68.6391L69.3362 59.9776L66.5 59ZM58.2812 59L55.4735 57.9432L53.9467 62H58.2812V59ZM75.4062 13.5V10.5H73.3299L72.5985 12.4432L75.4062 13.5ZM80.6562 13.5L83.6434 13.7772L83.9475 10.5H80.6562V13.5ZM91.4688 59L88.6332 59.9796L89.3312 62H91.4688V59ZM77.8438 19.5625L74.858 19.8549L74.8926 20.2074L75.0082 20.5421L77.8438 19.5625ZM77.25 13.5V10.5H73.9418L74.2643 13.7924L77.25 13.5ZM82.5312 13.5L85.3377 12.4399L84.6049 10.5H82.5312V13.5ZM99.7188 59V62H104.059L102.525 57.9399L99.7188 59ZM90.8125 42.125H93.8125V39.125H90.8125V42.125ZM90.8125 48.3438V51.3438H93.8125V48.3438H90.8125ZM66.0625 48.3438H63.0625V51.3438H66.0625V48.3438ZM66.0625 42.125V39.125H63.0625V42.125H66.0625ZM77.2575 18.5849L63.6638 58.0224L69.3362 59.9776L82.93 20.5401L77.2575 18.5849ZM66.5 56H58.2812V62H66.5V56ZM61.089 60.0568L78.214 14.5568L72.5985 12.4432L55.4735 57.9432L61.089 60.0568ZM75.4062 16.5H80.6562V10.5H75.4062V16.5ZM77.6691 13.2228L77.1066 19.2853L83.0809 19.8397L83.6434 13.7772L77.6691 13.2228ZM94.3043 58.0204L80.6793 18.5829L75.0082 20.5421L88.6332 59.9796L94.3043 58.0204ZM80.8295 19.2701L80.2357 13.2076L74.2643 13.7924L74.858 19.8549L80.8295 19.2701ZM77.25 16.5H82.5312V10.5H77.25V16.5ZM79.7248 14.5601L96.9123 60.0601L102.525 57.9399L85.3377 12.4399L79.7248 14.5601ZM99.7188 56H91.4688V62H99.7188V56ZM87.8125 42.125V48.3438H93.8125V42.125H87.8125ZM90.8125 45.3438H66.0625V51.3438H90.8125V45.3438ZM69.0625 48.3438V42.125H63.0625V48.3438H69.0625ZM66.0625 45.125H90.8125V39.125H66.0625V45.125ZM119.594 13.5H122.594V10.5H119.594V13.5ZM119.594 59V62H122.594V59H119.594ZM111.812 59H108.812V62H111.812V59ZM111.812 13.5V10.5H108.812V13.5H111.812ZM133.875 13.5H136.875V10.5H133.875V13.5ZM133.875 19.75V22.75H136.875V19.75H133.875ZM97.6562 19.75H94.6562V22.75H97.6562V19.75ZM97.6562 13.5V10.5H94.6562V13.5H97.6562ZM116.594 13.5V59H122.594V13.5H116.594ZM119.594 56H111.812V62H119.594V56ZM114.812 59V13.5H108.812V59H114.812ZM111.812 16.5H119.594V10.5H111.812V16.5ZM130.875 13.5V19.75H136.875V13.5H130.875ZM133.875 16.75H97.6562V22.75H133.875V16.75ZM100.656 19.75V13.5H94.6562V19.75H100.656ZM97.6562 16.5H133.875V10.5H97.6562V16.5ZM169.656 52.7812H172.656V49.7812H169.656V52.7812ZM169.656 59V62H172.656V59H169.656ZM145.5 59H142.5V62H145.5V59ZM145.5 52.7812V49.7812H142.5V52.7812H145.5ZM147.719 13.5H150.719V10.5H147.719V13.5ZM147.719 59V62H150.719V59H147.719ZM139.875 59H136.875V62H139.875V59ZM139.875 13.5V10.5H136.875V13.5H139.875ZM166.5 32.5H169.5V29.5H166.5V32.5ZM166.5 38.625V41.625H169.5V38.625H166.5ZM145.5 38.625H142.5V41.625H145.5V38.625ZM145.5 32.5V29.5H142.5V32.5H145.5ZM169.5 13.5H172.5V10.5H169.5V13.5ZM169.5 19.75V22.75H172.5V19.75H169.5ZM145.5 19.75H142.5V22.75H145.5V19.75ZM145.5 13.5V10.5H142.5V13.5H145.5ZM166.656 52.7812V59H172.656V52.7812H166.656ZM169.656 56H145.5V62H169.656V56ZM148.5 59V52.7812H142.5V59H148.5ZM145.5 55.7812H169.656V49.7812H145.5V55.7812ZM144.719 13.5V59H150.719V13.5H144.719ZM147.719 56H139.875V62H147.719V56ZM142.875 59V13.5H136.875V59H142.875ZM139.875 16.5H147.719V10.5H139.875V16.5ZM163.5 32.5V38.625H169.5V32.5H163.5ZM166.5 35.625H145.5V41.625H166.5V35.625ZM148.5 38.625V32.5H142.5V38.625H148.5ZM145.5 35.5H166.5V29.5H145.5V35.5ZM166.5 13.5V19.75H172.5V13.5H166.5ZM169.5 16.75H145.5V22.75H169.5V16.75ZM148.5 19.75V13.5H142.5V19.75H148.5ZM145.5 16.5H169.5V10.5H145.5V16.5ZM211 35.75H214V32.75H211V35.75ZM211 53.125L213.393 54.9343L214 54.1315V53.125H211ZM207.969 55.9375L209.751 58.3508L209.757 58.3462L207.969 55.9375ZM186.312 58.1875L185.169 60.961L185.179 60.9653L185.19 60.9696L186.312 58.1875ZM180.156 53.9062L177.939 55.9267L177.945 55.9334L177.951 55.9401L180.156 53.9062ZM176.188 47.0625L173.353 48.0438L173.355 48.0506L176.188 47.0625ZM176.062 25.4688L173.208 24.5465L173.206 24.5533L173.203 24.5601L176.062 25.4688ZM185.688 14.3438L186.845 17.1115L186.857 17.1063L185.688 14.3438ZM202.781 14.75L201.412 17.4195L201.426 17.4264L201.44 17.4333L202.781 14.75ZM211 27.375V30.375H214.401L213.976 27.0002L211 27.375ZM203.312 27.375L200.349 27.8429L200.749 30.375H203.312V27.375ZM201.844 23.125L199.234 24.604L199.243 24.6204L199.252 24.6366L201.844 23.125ZM198.781 20.1875L197.324 22.81L197.349 22.8236L197.374 22.8368L198.781 20.1875ZM185.438 23.1562L182.965 21.4567L182.956 21.4699L182.947 21.4832L185.438 23.1562ZM183.406 28.0312L180.489 27.3335L183.406 28.0312ZM183.5 44.4688L180.603 45.2476L180.607 45.262L180.611 45.2765L183.5 44.4688ZM185.812 49.375L183.413 51.175L183.421 51.1869L183.43 51.1987L185.812 49.375ZM189.531 52.4062L188.252 55.1198L188.268 55.1273L188.284 55.1347L189.531 52.4062ZM198.875 52.9688L199.615 55.876L199.64 55.8698L199.664 55.863L198.875 52.9688ZM201.594 51.875L203.184 54.419L203.194 54.4125L203.204 54.406L201.594 51.875ZM203.188 50.625L205.365 52.6882L206.188 51.8204V50.625H203.188ZM203.188 41.5938H206.188V38.5938H203.188V41.5938ZM193.719 41.5938H190.719V44.5938H193.719V41.5938ZM193.719 35.75V32.75H190.719V35.75H193.719ZM208 35.75V53.125H214V35.75H208ZM208.607 51.3157C208.204 51.8481 207.446 52.5892 206.18 53.5288L209.757 58.3462C211.242 57.2441 212.504 56.1102 213.393 54.9343L208.607 51.3157ZM206.187 53.5242C205.174 54.2717 203.695 55.0108 201.638 55.6774L203.487 61.3851C205.93 60.5934 208.055 59.6033 209.751 58.3508L206.187 53.5242ZM201.638 55.6774C199.782 56.2786 197.317 56.625 194.156 56.625V62.625C197.704 62.625 200.843 62.2423 203.487 61.3851L201.638 55.6774ZM194.156 56.625C191.643 56.625 189.415 56.2042 187.435 55.4054L185.19 60.9696C187.96 62.0874 190.961 62.625 194.156 62.625V56.625ZM187.456 55.414C185.482 54.5999 183.793 53.4242 182.362 51.8724L177.951 55.9401C179.978 58.1383 182.393 59.8167 185.169 60.961L187.456 55.414ZM182.374 51.8858C180.969 50.3444 179.841 48.4265 179.02 46.0744L173.355 48.0506C174.409 51.0735 175.926 53.7181 177.939 55.9267L182.374 51.8858ZM179.022 46.0812C178.214 43.746 177.781 41.0037 177.781 37.8125H171.781C171.781 41.538 172.286 44.9623 173.353 48.0438L179.022 46.0812ZM177.781 37.8125V34.6562H171.781V37.8125H177.781ZM177.781 34.6562C177.781 31.4621 178.179 28.715 178.922 26.3774L173.203 24.5601C172.238 27.5975 171.781 30.9754 171.781 34.6562H177.781ZM178.917 26.391C179.686 24.0101 180.754 22.0875 182.08 20.5585L177.545 16.629C175.621 18.85 174.189 21.5107 173.208 24.5465L178.917 26.391ZM182.08 20.5585C183.401 19.0336 184.98 17.8915 186.845 17.1115L184.53 11.576C181.812 12.7126 179.474 14.4039 177.545 16.629L182.08 20.5585ZM186.857 17.1063C188.745 16.3071 190.952 15.875 193.531 15.875V9.875C190.277 9.875 187.255 10.4221 184.518 11.5812L186.857 17.1063ZM193.531 15.875C196.948 15.875 199.523 16.4507 201.412 17.4195L204.15 12.0805C201.164 10.5493 197.573 9.875 193.531 9.875V15.875ZM201.44 17.4333C203.432 18.4296 204.889 19.7653 205.907 21.4364L211.03 18.3136C209.382 15.6097 207.047 13.5287 204.123 12.0667L201.44 17.4333ZM205.907 21.4364C206.997 23.2252 207.717 25.3126 208.024 27.7498L213.976 27.0002C213.575 23.8124 212.607 20.8998 211.03 18.3136L205.907 21.4364ZM211 24.375H203.312V30.375H211V24.375ZM206.276 26.9071C205.974 24.9954 205.371 23.2181 204.435 21.6134L199.252 24.6366C199.775 25.5319 200.151 26.588 200.349 27.8429L206.276 26.9071ZM204.454 21.646C203.449 19.8736 201.999 18.5 200.189 17.5382L197.374 22.8368C198.23 23.2917 198.821 23.8764 199.234 24.604L204.454 21.646ZM200.238 17.565C198.337 16.5087 196.076 16.0938 193.656 16.0938V22.0938C195.444 22.0938 196.601 22.408 197.324 22.81L200.238 17.565ZM193.656 16.0938C191.461 16.0938 189.393 16.5118 187.533 17.4417L190.217 22.8083C191.107 22.3632 192.227 22.0938 193.656 22.0938V16.0938ZM187.533 17.4417C185.68 18.3682 184.154 19.7278 182.965 21.4567L187.91 24.8558C188.554 23.918 189.32 23.2568 190.217 22.8083L187.533 17.4417ZM182.947 21.4832C181.812 23.1723 181.012 25.1452 180.489 27.3335L186.324 28.729C186.717 27.084 187.271 25.8068 187.928 24.8293L182.947 21.4832ZM180.489 27.3335C179.964 29.5268 179.719 31.9556 179.719 34.5938H185.719C185.719 32.3153 185.932 30.369 186.324 28.729L180.489 27.3335ZM179.719 34.5938V37.8125H185.719V34.5938H179.719ZM179.719 37.8125C179.719 40.5139 179.999 43.0028 180.603 45.2476L186.397 43.6899C185.959 42.0597 185.719 40.1111 185.719 37.8125H179.719ZM180.611 45.2765C181.232 47.5 182.148 49.4895 183.413 51.175L188.212 47.575C187.477 46.5938 186.851 45.3125 186.389 43.661L180.611 45.2765ZM183.43 51.1987C184.73 52.8962 186.342 54.2194 188.252 55.1198L190.811 49.6927C189.804 49.2181 188.937 48.5205 188.195 47.5513L183.43 51.1987ZM188.284 55.1347C190.186 56.0042 192.267 56.4062 194.469 56.4062V50.4062C193.004 50.4062 191.793 50.1416 190.779 49.6778L188.284 55.1347ZM194.469 56.4062C196.396 56.4062 198.137 56.2522 199.615 55.876L198.135 50.0615C197.321 50.2687 196.125 50.4062 194.469 50.4062V56.4062ZM199.664 55.863C200.964 55.5086 202.177 55.0485 203.184 54.419L200.004 49.331C199.678 49.5348 199.078 49.8039 198.086 50.0745L199.664 55.863ZM203.204 54.406C204.008 53.8946 204.76 53.3271 205.365 52.6882L201.01 48.5618C200.865 48.7145 200.555 48.9804 199.983 49.344L203.204 54.406ZM206.188 50.625V41.5938H200.188V50.625H206.188ZM203.188 38.5938H193.719V44.5938H203.188V38.5938ZM196.719 41.5938V35.75H190.719V41.5938H196.719ZM193.719 38.75H211V32.75H193.719V38.75ZM250.781 53.7188L248.517 51.7502L248.511 51.7573L248.505 51.7643L250.781 53.7188ZM244.844 58.125L246.034 60.8786L246.045 60.8741L246.055 60.8695L244.844 58.125ZM229.5 58.125L228.279 60.8654L228.294 60.8721L228.309 60.8786L229.5 58.125ZM223.531 53.7188L221.28 55.7012L223.531 53.7188ZM219.594 46.75L216.75 47.7052L216.753 47.7149L216.756 47.7246L219.594 46.75ZM219.594 25.7812L222.435 26.743L222.438 26.7364L219.594 25.7812ZM223.469 18.8125L221.206 16.8422L221.205 16.844L223.469 18.8125ZM229.438 14.4062L230.637 17.1559L230.649 17.1507L229.438 14.4062ZM244.781 14.4062L243.57 17.1507L243.58 17.1553L243.591 17.1598L244.781 14.4062ZM250.75 18.8125L248.476 20.7689L248.481 20.775L248.486 20.781L250.75 18.8125ZM254.594 25.7812L251.743 26.7169L251.748 26.73L251.752 26.743L254.594 25.7812ZM247.375 28.2188L244.461 28.9318L244.465 28.9501L244.47 28.9684L247.375 28.2188ZM245.219 23.3125L242.765 25.038L242.78 25.0599L242.796 25.0816L245.219 23.3125ZM241.75 20.3125L240.408 22.9958L240.425 23.004L240.441 23.0119L241.75 20.3125ZM232.469 20.3125L233.794 23.004L233.81 22.9959L233.827 22.9875L232.469 20.3125ZM229 23.3125L226.564 21.5616L226.559 21.5688L229 23.3125ZM226.844 28.2188L229.749 28.9684L229.751 28.9609L226.844 28.2188ZM229.031 49.2188L226.582 50.9518L226.598 50.9733L226.613 50.9945L229.031 49.2188ZM232.531 52.25L231.173 54.925L231.19 54.9334L231.206 54.9415L232.531 52.25ZM241.812 52.25L243.138 54.9415L243.154 54.9334L243.171 54.925L241.812 52.25ZM245.25 49.2188L247.704 50.9443L247.71 50.9354L247.717 50.9264L245.25 49.2188ZM247.375 44.25L244.468 43.5079L244.465 43.5224L244.461 43.537L247.375 44.25ZM252.969 35V37.5H258.969V35H252.969ZM252.969 37.5C252.969 40.6803 252.554 43.4398 251.775 45.8144L257.475 47.6856C258.488 44.6018 258.969 41.1947 258.969 37.5H252.969ZM251.775 45.8144C250.987 48.2132 249.889 50.1723 248.517 51.7502L253.045 55.6873C255.006 53.4318 256.471 50.7452 257.475 47.6856L251.775 45.8144ZM248.505 51.7643C247.151 53.3414 245.536 54.5403 243.632 55.3805L246.055 60.8695C248.777 59.6681 251.12 57.9295 253.057 55.6732L248.505 51.7643ZM243.653 55.3714C241.758 56.1909 239.607 56.625 237.156 56.625V62.625C240.331 62.625 243.305 62.0591 246.034 60.8786L243.653 55.3714ZM237.156 56.625C234.73 56.625 232.589 56.1921 230.691 55.3714L228.309 60.8786C231.036 62.0579 233.999 62.625 237.156 62.625V56.625ZM230.721 55.3846C228.83 54.5425 227.191 53.3351 225.783 51.7363L221.28 55.7012C223.247 57.9357 225.586 59.6658 228.279 60.8654L230.721 55.3846ZM225.783 51.7363C224.386 50.1499 223.258 48.1816 222.431 45.7754L216.756 47.7246C217.805 50.7768 219.301 53.4542 221.28 55.7012L225.783 51.7363ZM222.438 45.7948C221.642 43.4266 221.219 40.6739 221.219 37.5H215.219C215.219 41.2011 215.712 44.6151 216.75 47.7052L222.438 45.7948ZM221.219 37.5V35H215.219V37.5H221.219ZM221.219 35C221.219 31.8255 221.642 29.0862 222.435 26.743L216.752 24.8195C215.712 27.893 215.219 31.2995 215.219 35H221.219ZM222.438 26.7364C223.246 24.3303 224.356 22.3642 225.733 20.781L221.205 16.844C219.248 19.0942 217.775 21.7739 216.75 24.8261L222.438 26.7364ZM225.731 20.7828C227.135 19.1711 228.765 17.9731 230.637 17.1559L228.238 11.6566C225.527 12.8394 223.178 14.5789 221.207 16.8422L225.731 20.7828ZM230.649 17.1507C232.542 16.3152 234.675 15.875 237.094 15.875V9.875C233.929 9.875 230.958 10.4556 228.226 11.6618L230.649 17.1507ZM237.094 15.875C239.536 15.875 241.68 16.3165 243.57 17.1507L245.993 11.6618C243.258 10.4544 240.276 9.875 237.094 9.875V15.875ZM243.591 17.1598C245.48 17.9769 247.101 19.1706 248.476 20.7689L253.024 16.8561C251.066 14.5794 248.708 12.8356 245.972 11.6527L243.591 17.1598ZM248.486 20.781C249.858 22.3589 250.956 24.3181 251.743 26.7169L257.444 24.8456C256.44 21.7861 254.975 19.0994 253.014 16.844L248.486 20.781ZM251.752 26.743C252.545 29.0862 252.969 31.8255 252.969 35H258.969C258.969 31.2995 258.476 27.893 257.435 24.8195L251.752 26.743ZM251.125 37.5V34.9375H245.125V37.5H251.125ZM251.125 34.9375C251.125 32.2075 250.857 29.707 250.28 27.4691L244.47 28.9684C244.893 30.6055 245.125 32.5842 245.125 34.9375H251.125ZM250.289 27.5057C249.738 25.2553 248.879 23.2387 247.642 21.5434L242.796 25.0816C243.475 26.0113 244.053 27.2655 244.461 28.9318L250.289 27.5057ZM247.673 21.587C246.463 19.8657 244.923 18.5167 243.059 17.6131L240.441 23.0119C241.327 23.4416 242.1 24.0926 242.765 25.038L247.673 21.587ZM243.092 17.6292C241.251 16.7087 239.23 16.2812 237.094 16.2812V22.2812C238.416 22.2812 239.499 22.5413 240.408 22.9958L243.092 17.6292ZM237.094 16.2812C234.958 16.2812 232.941 16.7084 231.111 17.6375L233.827 22.9875C234.705 22.5416 235.771 22.2812 237.094 22.2812V16.2812ZM231.144 17.621C229.309 18.524 227.784 19.8642 226.564 21.5616L231.436 25.0634C232.133 24.0941 232.92 23.4343 233.794 23.004L231.144 17.621ZM226.559 21.5688C225.359 23.2492 224.507 25.2461 223.937 27.4766L229.751 28.9609C230.181 27.2748 230.766 26.0008 231.441 25.0562L226.559 21.5688ZM223.939 27.4691C223.361 29.707 223.094 32.2075 223.094 34.9375H229.094C229.094 32.5842 229.326 30.6055 229.749 28.9684L223.939 27.4691ZM223.094 34.9375V37.5H229.094V34.9375H223.094ZM223.094 37.5C223.094 40.2309 223.362 42.7385 223.937 44.9921L229.751 43.5079C229.326 41.8448 229.094 39.8524 229.094 37.5H223.094ZM223.937 44.9921C224.509 47.2307 225.371 49.2406 226.582 50.9518L231.48 47.4857C230.774 46.4886 230.179 45.186 229.751 43.5079L223.937 44.9921ZM226.613 50.9945C227.845 52.672 229.364 54.0063 231.173 54.925L233.889 49.575C232.991 49.1187 232.176 48.4322 231.449 47.443L226.613 50.9945ZM231.206 54.9415C233.029 55.8388 235.035 56.25 237.156 56.25V50.25C235.819 50.25 234.742 49.9945 233.856 49.5585L231.206 54.9415ZM237.156 56.25C239.293 56.25 241.31 55.8411 243.138 54.9415L240.487 49.5585C239.606 49.9922 238.52 50.25 237.156 50.25V56.25ZM243.171 54.925C244.994 53.9993 246.506 52.6488 247.704 50.9443L242.796 47.4932C242.119 48.4554 241.339 49.1257 240.454 49.575L243.171 54.925ZM247.717 50.9264C248.904 49.2117 249.742 47.2002 250.289 44.963L244.461 43.537C244.05 45.2165 243.471 46.5175 242.783 47.5111L247.717 50.9264ZM250.282 44.9921C250.857 42.7385 251.125 40.2309 251.125 37.5H245.125C245.125 39.8524 244.893 41.8448 244.468 43.5079L250.282 44.9921ZM263.812 13.5V10.5H260.812V13.5H263.812ZM294.344 19.6875L291.809 21.2914L291.818 21.3065L291.828 21.3216L294.344 19.6875ZM291.531 37.5625L293.357 39.9428L293.367 39.935L293.378 39.9271L291.531 37.5625ZM286.094 40.2812L285.214 37.4133L284.99 37.4818L284.781 37.5839L286.094 40.2812ZM283.719 41.4375V44.4375H284.41L285.032 44.1348L283.719 41.4375ZM269.25 41.4375L266.25 41.4676L266.28 44.4375H269.25V41.4375ZM269.188 35.2188V32.2188H266.157L266.188 35.2489L269.188 35.2188ZM287.531 31.5L284.907 30.0471L284.902 30.0552L284.898 30.0634L287.531 31.5ZM287.562 23.4375L284.889 24.7979L284.903 24.8262L284.918 24.8542L287.562 23.4375ZM284.75 20.7188L283.391 23.3932L283.408 23.4021L283.426 23.4108L284.75 20.7188ZM271.656 19.75V16.75H268.656V19.75H271.656ZM271.656 59V62H274.656V59H271.656ZM263.812 59H260.812V62H263.812V59ZM289.781 59L287.123 60.3902L287.965 62H289.781V59ZM279.094 38.5625L279.082 35.5625L274.149 35.5813L276.435 39.9527L279.094 38.5625ZM287.312 38.5312L289.952 37.1048L289.098 35.5244L287.301 35.5313L287.312 38.5312ZM298.156 58.5938H301.156V57.8349L300.795 57.1673L298.156 58.5938ZM298.156 59V62H301.156V59H298.156ZM263.812 16.5H279.906V10.5H263.812V16.5ZM279.906 16.5C283.077 16.5 285.601 16.9793 287.571 17.8212L289.929 12.3038C287.024 11.0624 283.652 10.5 279.906 10.5V16.5ZM287.571 17.8212C289.507 18.6484 290.873 19.8129 291.809 21.2914L296.879 18.0836C295.231 15.4787 292.868 13.56 289.929 12.3038L287.571 17.8212ZM291.828 21.3216C292.757 22.7523 293.312 24.6509 293.312 27.1875H299.312C299.312 23.7658 298.555 20.6644 296.86 18.0534L291.828 21.3216ZM293.312 27.1875C293.312 29.0892 292.965 30.63 292.36 31.8851L297.765 34.4899C298.827 32.2867 299.312 29.8275 299.312 27.1875H293.312ZM292.36 31.8851C291.728 33.1969 290.845 34.2925 289.685 35.1979L293.378 39.9271C295.26 38.4575 296.731 36.6364 297.765 34.4899L292.36 31.8851ZM289.705 35.1822C288.507 36.1016 287.026 36.857 285.214 37.4133L286.974 43.1492C289.37 42.4138 291.514 41.3568 293.357 39.9428L289.705 35.1822ZM284.781 37.5839L282.406 38.7402L285.032 44.1348L287.407 42.9786L284.781 37.5839ZM283.719 38.4375H269.25V44.4375H283.719V38.4375ZM272.25 41.4074L272.187 35.1886L266.188 35.2489L266.25 41.4676L272.25 41.4074ZM269.188 38.2188H280.031V32.2188H269.188V38.2188ZM280.031 38.2188C282.245 38.2188 284.328 37.827 286.131 36.8658L283.307 31.5717C282.609 31.9438 281.567 32.2188 280.031 32.2188V38.2188ZM286.131 36.8658C287.851 35.9481 289.236 34.6405 290.165 32.9366L284.898 30.0634C284.577 30.6512 284.086 31.156 283.307 31.5717L286.131 36.8658ZM290.156 32.9529C291.071 31.3008 291.5 29.4803 291.5 27.5625H285.5C285.5 28.5613 285.284 29.3659 284.907 30.0471L290.156 32.9529ZM291.5 27.5625C291.5 25.5815 291.107 23.7011 290.207 22.0208L284.918 24.8542C285.268 25.5072 285.5 26.3769 285.5 27.5625H291.5ZM290.236 22.0771C289.319 20.2739 287.888 18.9188 286.074 18.0267L283.426 23.4108C284.154 23.7687 284.598 24.2261 284.889 24.7979L290.236 22.0771ZM286.109 18.0443C284.29 17.1198 282.17 16.75 279.906 16.75V22.75C281.559 22.75 282.668 23.0261 283.391 23.3932L286.109 18.0443ZM279.906 16.75H271.656V22.75H279.906V16.75ZM268.656 19.75V59H274.656V19.75H268.656ZM271.656 56H263.812V62H271.656V56ZM266.812 59V13.5H260.812V59H266.812ZM292.44 57.6098L281.752 37.1723L276.435 39.9527L287.123 60.3902L292.44 57.6098ZM279.105 41.5625L287.324 41.5312L287.301 35.5313L279.082 35.5625L279.105 41.5625ZM284.673 39.9577L295.517 60.0202L300.795 57.1673L289.952 37.1048L284.673 39.9577ZM295.156 58.5938V59H301.156V58.5938H295.156ZM298.156 56H289.781V62H298.156V56ZM312.5 13.5H315.5V10.5H312.5V13.5ZM312.5 59V62H315.5V59H312.5ZM304.656 59H301.656V62H304.656V59ZM304.656 13.5V10.5H301.656V13.5H304.656ZM309.5 13.5V59H315.5V13.5H309.5ZM312.5 56H304.656V62H312.5V56ZM307.656 59V13.5H301.656V59H307.656ZM304.656 16.5H312.5V10.5H304.656V16.5ZM340.531 19.5625L343.367 20.5401L343.485 20.199L343.518 19.8397L340.531 19.5625ZM326.938 59V62H329.077L329.774 59.9776L326.938 59ZM318.719 59L315.911 57.9432L314.384 62H318.719V59ZM335.844 13.5V10.5H333.767L333.036 12.4432L335.844 13.5ZM341.094 13.5L344.081 13.7772L344.385 10.5H341.094V13.5ZM351.906 59L349.071 59.9796L349.769 62H351.906V59ZM338.281 19.5625L335.296 19.8549L335.33 20.2074L335.446 20.5421L338.281 19.5625ZM337.688 13.5V10.5H334.379L334.702 13.7924L337.688 13.5ZM342.969 13.5L345.775 12.4399L345.042 10.5H342.969V13.5ZM360.156 59V62H364.496L362.963 57.9399L360.156 59ZM351.25 42.125H354.25V39.125H351.25V42.125ZM351.25 48.3438V51.3438H354.25V48.3438H351.25ZM326.5 48.3438H323.5V51.3438H326.5V48.3438ZM326.5 42.125V39.125H323.5V42.125H326.5ZM337.695 18.5849L324.101 58.0224L329.774 59.9776L343.367 20.5401L337.695 18.5849ZM326.938 56H318.719V62H326.938V56ZM321.526 60.0568L338.651 14.5568L333.036 12.4432L315.911 57.9432L321.526 60.0568ZM335.844 16.5H341.094V10.5H335.844V16.5ZM338.107 13.2228L337.544 19.2853L343.518 19.8397L344.081 13.7772L338.107 13.2228ZM354.742 58.0204L341.117 18.5829L335.446 20.5421L349.071 59.9796L354.742 58.0204ZM341.267 19.2701L340.673 13.2076L334.702 13.7924L335.296 19.8549L341.267 19.2701ZM337.688 16.5H342.969V10.5H337.688V16.5ZM340.162 14.5601L357.35 60.0601L362.963 57.9399L345.775 12.4399L340.162 14.5601ZM360.156 56H351.906V62H360.156V56ZM348.25 42.125V48.3438H354.25V42.125H348.25ZM351.25 45.3438H326.5V51.3438H351.25V45.3438ZM329.5 48.3438V42.125H323.5V48.3438H329.5ZM326.5 45.125H351.25V39.125H326.5V45.125ZM388.75 44.7812L385.938 45.8258L385.951 45.8608L385.965 45.8954L388.75 44.7812ZM387.281 42.7812L385.334 45.0638L387.281 42.7812ZM384.281 41.0312L383.03 43.7577L383.056 43.77L383.083 43.7818L384.281 41.0312ZM379.406 39.25L378.524 42.1173L378.53 42.1193L379.406 39.25ZM373.406 37.0312L372.153 39.757L372.172 39.7656L372.191 39.774L373.406 37.0312ZM368.656 34.1562L366.76 36.4813L366.771 36.4901L366.782 36.4989L368.656 34.1562ZM365.5 30.375L362.84 31.7627L362.844 31.7707L362.849 31.7787L365.5 30.375ZM365.531 20.3438L362.87 18.9585L362.863 18.973L362.855 18.9875L365.531 20.3438ZM368.875 16.4062L370.702 18.7854L370.707 18.7816L368.875 16.4062ZM374.031 13.8125L374.907 16.6818L374.921 16.6776L374.935 16.6732L374.031 13.8125ZM389.312 14.75L387.944 17.4195L387.953 17.4242L389.312 14.75ZM394.969 19.7812L392.423 21.369L392.429 21.378L392.435 21.387L394.969 19.7812ZM396.969 26.75V29.75H399.969V26.75H396.969ZM389.188 26.75H386.188V29.75H389.188V26.75ZM388.219 22.7812L385.574 24.1979L385.59 24.2263L385.605 24.2543L388.219 22.7812ZM385.344 20.0312L383.95 22.6879L383.959 22.6925L383.968 22.6971L385.344 20.0312ZM375.875 19.875L374.627 17.1471L375.875 19.875ZM372.812 27.75L370.194 29.2135L370.203 29.2302L370.213 29.2469L372.812 27.75ZM374.625 29.6875L372.835 32.0949L372.855 32.1098L372.875 32.1245L374.625 29.6875ZM377.688 31.3438L376.517 34.106L377.688 31.3438ZM382.031 32.8438L382.887 29.9683L382.873 29.9644L382.86 29.9605L382.031 32.8438ZM388.625 35.3438L387.307 38.0389L387.32 38.0448L387.332 38.0507L388.625 35.3438ZM396.125 42.3125L393.368 43.4943L393.371 43.5015L393.374 43.5087L396.125 42.3125ZM395.906 52.4062L398.582 53.7625L398.586 53.7552L398.59 53.7479L395.906 52.4062ZM392.594 56.3125L394.394 58.7125L394.399 58.7083L392.594 56.3125ZM387.469 58.7812L388.289 61.667L388.299 61.6641L388.309 61.6613L387.469 58.7812ZM374.375 58.75L373.574 61.641L373.581 61.643L374.375 58.75ZM368.625 56.0938L366.907 58.5528L366.917 58.5598L366.927 58.5667L368.625 56.0938ZM364.5 51.5938L361.886 53.066L361.89 53.0724L361.893 53.0789L364.5 51.5938ZM362.969 45.25V42.25H359.969V45.25H362.969ZM370.812 45.25H373.812V42.25H370.812V45.25ZM371.562 49.0312L368.858 50.3294L368.868 50.3513L368.879 50.3729L371.562 49.0312ZM373.719 51.5938L371.954 54.02L371.972 54.0332L371.991 54.0462L373.719 51.5938ZM376.906 53.0312L376.155 55.9357L376.167 55.9388L376.906 53.0312ZM385.438 52.7188L384.284 49.9495L384.275 49.953L384.267 49.9565L385.438 52.7188ZM392.188 47.2812C392.188 46.0344 391.993 44.8121 391.535 43.6671L385.965 45.8954C386.09 46.2087 386.188 46.6531 386.188 47.2812H392.188ZM391.562 43.7367C391.081 42.4416 390.249 41.3697 389.228 40.4987L385.334 45.0638C385.73 45.4011 385.877 45.6626 385.938 45.8258L391.562 43.7367ZM389.228 40.4987C388.211 39.6309 386.918 38.9074 385.479 38.2807L383.083 43.7818C384.228 44.2801 384.935 44.7233 385.334 45.0638L389.228 40.4987ZM385.533 38.3048C384.097 37.6459 382.335 37.0074 380.282 36.3807L378.53 42.1193C380.436 42.701 381.924 43.25 383.03 43.7577L385.533 38.3048ZM380.289 36.3827C378.221 35.7465 376.334 35.0472 374.622 34.2885L372.191 39.774C374.146 40.6403 376.258 41.4202 378.524 42.1173L380.289 36.3827ZM374.659 34.3055C373.036 33.5593 371.668 32.7237 370.53 31.8136L366.782 36.4989C368.353 37.7555 370.151 38.8366 372.153 39.757L374.659 34.3055ZM370.552 31.8312C369.481 30.9576 368.697 30.0026 368.151 28.9713L362.849 31.7787C363.803 33.5807 365.124 35.1466 366.76 36.4813L370.552 31.8312ZM368.16 28.9873C367.666 28.0408 367.375 26.8739 367.375 25.4062H361.375C361.375 27.6886 361.834 29.8342 362.84 31.7627L368.16 28.9873ZM367.375 25.4062C367.375 23.9813 367.668 22.7645 368.207 21.7L362.855 18.9875C361.853 20.9646 361.375 23.1228 361.375 25.4062H367.375ZM368.192 21.729C368.77 20.6183 369.592 19.6386 370.702 18.7854L367.048 14.0271C365.283 15.3822 363.875 17.0275 362.87 18.9585L368.192 21.729ZM370.707 18.7816C371.846 17.9032 373.232 17.1933 374.907 16.6818L373.155 10.9432C370.873 11.64 368.821 12.6594 367.043 14.0309L370.707 18.7816ZM374.935 16.6732C376.58 16.1535 378.458 15.875 380.594 15.875V9.875C377.938 9.875 375.44 10.2215 373.128 10.9518L374.935 16.6732ZM380.594 15.875C383.601 15.875 386.017 16.4314 387.944 17.4195L390.681 12.0805C387.733 10.5686 384.336 9.875 380.594 9.875V15.875ZM387.953 17.4242C389.98 18.4552 391.431 19.7787 392.423 21.369L397.514 18.1935C395.881 15.5754 393.561 13.5448 390.672 12.0758L387.953 17.4242ZM392.435 21.387C393.457 23.0007 393.969 24.7647 393.969 26.75H399.969C399.969 23.652 399.147 20.7702 397.503 18.1755L392.435 21.387ZM396.969 23.75H389.188V29.75H396.969V23.75ZM392.188 26.75C392.188 24.8074 391.765 22.9636 390.832 21.3082L385.605 24.2543C385.964 24.8906 386.188 25.6926 386.188 26.75H392.188ZM390.863 21.3646C389.923 19.6103 388.495 18.2819 386.72 17.3654L383.968 22.6971C384.775 23.1139 385.264 23.6189 385.574 24.1979L390.863 21.3646ZM386.737 17.3746C384.909 16.4154 382.775 16.0312 380.5 16.0312V22.0312C382.141 22.0312 383.237 22.3138 383.95 22.6879L386.737 17.3746ZM380.5 16.0312C378.366 16.0312 376.365 16.3517 374.627 17.1471L377.123 22.6029C377.844 22.2733 378.926 22.0312 380.5 22.0312V16.0312ZM374.627 17.1471C372.971 17.9047 371.558 19.0161 370.587 20.5563L375.663 23.7562C375.9 23.3797 376.321 22.9703 377.123 22.6029L374.627 17.1471ZM370.587 20.5563C369.661 22.0259 369.219 23.6711 369.219 25.4062H375.219C375.219 24.7248 375.381 24.2032 375.663 23.7562L370.587 20.5563ZM369.219 25.4062C369.219 26.7448 369.535 28.0341 370.194 29.2135L375.431 26.2865C375.299 26.0493 375.219 25.776 375.219 25.4062H369.219ZM370.213 29.2469C370.861 30.3738 371.781 31.3109 372.835 32.0949L376.415 27.2801C375.844 26.8558 375.555 26.5012 375.412 26.2531L370.213 29.2469ZM372.875 32.1245C373.917 32.8721 375.147 33.5254 376.517 34.106L378.858 28.5815C377.77 28.1204 376.958 27.6695 376.375 27.2505L372.875 32.1245ZM376.517 34.106C377.885 34.6855 379.452 35.2237 381.202 35.727L382.86 29.9605C381.277 29.5055 379.949 29.0437 378.858 28.5815L376.517 34.106ZM381.176 35.7192C383.577 36.4335 385.614 37.2108 387.307 38.0389L389.943 32.6486C387.886 31.6433 385.527 30.754 382.887 29.9683L381.176 35.7192ZM387.332 38.0507C388.997 38.8462 390.297 39.7116 391.285 40.6177L395.34 36.1948C393.828 34.8092 392.003 33.6329 389.918 32.6368L387.332 38.0507ZM391.285 40.6177C392.244 41.4961 392.922 42.4535 393.368 43.4943L398.882 41.1307C398.078 39.2548 396.881 37.6081 395.34 36.1948L391.285 40.6177ZM393.374 43.5087C393.809 44.5102 394.062 45.728 394.062 47.2188H400.062C400.062 45.0429 399.691 42.9898 398.876 41.1163L393.374 43.5087ZM394.062 47.2188C394.062 48.7225 393.763 49.9843 393.223 51.0646L398.59 53.7479C399.591 51.7449 400.062 49.5483 400.062 47.2188H394.062ZM393.23 51.05C392.678 52.1397 391.881 53.0932 390.788 53.9167L394.399 58.7083C396.182 57.3652 397.593 55.7145 398.582 53.7625L393.23 51.05ZM390.794 53.9125C389.712 54.7241 388.342 55.4014 386.629 55.9012L388.309 61.6613C390.595 60.9944 392.643 60.0259 394.394 58.7125L390.794 53.9125ZM386.649 55.8955C384.98 56.3698 383.053 56.625 380.844 56.625V62.625C383.509 62.625 385.999 62.3177 388.289 61.667L386.649 55.8955ZM380.844 56.625C378.927 56.625 377.037 56.3699 375.169 55.857L373.581 61.643C375.963 62.2968 378.386 62.625 380.844 62.625V56.625ZM375.176 55.859C373.379 55.3608 371.768 54.6126 370.323 53.6208L366.927 58.5667C368.941 59.9499 371.163 60.9726 373.574 61.641L375.176 55.859ZM370.343 53.6347C368.97 52.6751 367.902 51.5047 367.107 50.1086L361.893 53.0789C363.14 55.2661 364.821 57.0958 366.907 58.5528L370.343 53.6347ZM367.114 50.1215C366.385 48.8265 365.969 47.2351 365.969 45.25H359.969C359.969 48.0983 360.574 50.736 361.886 53.066L367.114 50.1215ZM362.969 48.25H370.812V42.25H362.969V48.25ZM367.812 45.25C367.812 47.0569 368.117 48.7856 368.858 50.3294L374.267 47.7331C374.008 47.1936 373.812 46.4015 373.812 45.25H367.812ZM368.879 50.3729C369.609 51.8322 370.638 53.0626 371.954 54.02L375.483 49.1675C374.966 48.7915 374.558 48.3136 374.246 47.6896L368.879 50.3729ZM371.991 54.0462C373.235 54.9226 374.636 55.5428 376.155 55.9357L377.657 50.1268C376.76 49.8947 376.036 49.5566 375.447 49.1413L371.991 54.0462ZM376.167 55.9388C377.661 56.3185 379.223 56.5 380.844 56.5V50.5C379.672 50.5 378.61 50.369 377.645 50.1237L376.167 55.9388ZM380.844 56.5C382.939 56.5 384.898 56.2056 386.608 55.481L384.267 49.9565C383.519 50.2736 382.416 50.5 380.844 50.5V56.5ZM386.591 55.488C388.276 54.786 389.731 53.7177 390.746 52.1954L385.754 48.8671C385.519 49.2198 385.099 49.6098 384.284 49.9495L386.591 55.488ZM390.746 52.1954C391.73 50.7203 392.188 49.0465 392.188 47.2812H386.188C386.188 47.9743 386.02 48.4672 385.754 48.8671L390.746 52.1954Z" fill="#FF0000" mask="url(#path-1-outside-1_0_1)"/>
</g>
<defs>
<filter id="filter0_i_0_1" x="19.125" y="12.875" width="377.938" height="50.75" filterUnits="userSpaceOnUse" color-interpolation-filters="sRGB">
<feFlood flood-opacity="0" result="BackgroundImageFix"/>
<feBlend mode="normal" in="SourceGraphic" in2="BackgroundImageFix" result="shape"/>
<feColorMatrix in="SourceAlpha" type="matrix" values="0 0 0 0 0 0 0 0 0 0 0 0 0 0 0 0 0 0 127 0" result="hardAlpha"/>
<feOffset dy="4"/>
<feGaussianBlur stdDeviation="2"/>
<feComposite in2="hardAlpha" operator="arithmetic" k2="-1" k3="1"/>
<feColorMatrix type="matrix" values="0 0 0 0 0 0 0 0 0 0 0 0 0 0 0 0 0 0 0.25 0"/>
<feBlend mode="normal" in2="shape" result="effect1_innerShadow_0_1"/>
</filter>
<clipPath id="clip0_0_1">
<rect width="1440" height="1890" fill="white" transform="translate(-514 -676)"/>
</clipPath>
</defs>
</svg>
